# xmcd
#
# Track frame offsets:
#	150
#	20719
#	41509
#	63797
#	80280
#	99419
#	121314
#	140430
#	167180
#	189183
#	206578
#	223395
#	241628
#	259505
#	279842
#	297939
#	318999
#	338936
#
# Disc length: 4824 seconds
#
# Revision: 0
# Processed by: cddbd v1.5.2PL0 Copyright (c) Steve Scherf et al.
# Submitted via: EZCDAudioConverter 3.0.3.2
#
DISCID=fe12d612
DTITLE=群星 - 一人一首成名曲 CD7
DYEAR=2001
DGENRE=
TTITLE0=林憶蓮 - 至少還有你
TTITLE1=林志炫 - 單身情歌
TTITLE2=張惠妹 - 我可以抱你嗎
TTITLE3=杜德偉 - 情人
TTITLE4=莫文蔚 - 盛夏的果實
TTITLE5=黃品源 - 海浪
TTITLE6=陳慧琳 - 記事本
TTITLE7=游鴻明 - 下沙
TTITLE8=陶晶瑩 - 太委屈
TTITLE9=王傑 - 傷心1999
TTITLE10=張柏芝 - 星語心願
TTITLE11=羽·泉 - 冷酷到底
TTITLE12=孫燕姿 - 天黑黑
TTITLE13=迪克牛仔 - 我這個你不愛的人
TTITLE14=梁靜茹 - 勇氣
TTITLE15=張衛健 - 你愛我像誰
TTITLE16=蔡依林 - 我知道你很難過
TTITLE17=任賢齊 - 著淚的你的臉
EXTD=
EXTT0=
EXTT1=
EXTT2=
EXTT3=
EXTT4=
EXTT5=
EXTT6=
EXTT7=
EXTT8=
EXTT9=
EXTT10=
EXTT11=
EXTT12=
EXTT13=
EXTT14=
EXTT15=
EXTT16=
EXTT17=
PLAYORDER=
